<!DOCTYPE svg PUBLIC "-//W3C//DTD SVG 1.1//EN" "http://www.w3.org/Graphics/SVG/1.1/DTD/svg11.dtd">
<!-- Uploaded to: SVG Repo, www.svgrepo.com, Transformed by: SVG Repo Mixer Tools -->
<svg fill="#295556" height="800px" width="800px" version="1.1" id="Capa_1" xmlns="http://www.w3.org/2000/svg" xmlns:xlink="http://www.w3.org/1999/xlink" viewBox="0 0 60 60" xml:space="preserve">
<g id="SVGRepo_bgCarrier" stroke-width="0"/>
<g id="SVGRepo_tracerCarrier" stroke-linecap="round" stroke-linejoin="round"/>
<g id="SVGRepo_iconCarrier"> <g> <path d="M31,33C16.664,33,5,44.663,5,59c0,0.553,0.448,1,1,1s1-0.447,1-1c0-13.233,10.767-24,24-24s24,10.767,24,24 c0,0.553,0.448,1,1,1s1-0.447,1-1C57,44.663,45.336,33,31,33z"/> <path d="M31,38.263c-11.434,0-20.737,9.303-20.737,20.737c0,0.553,0.448,1,1,1s1-0.447,1-1c0-10.332,8.405-18.737,18.737-18.737 S49.737,48.668,49.737,59c0,0.553,0.448,1,1,1s1-0.447,1-1C51.737,47.565,42.434,38.263,31,38.263z"/> <path d="M31,43.526c-8.532,0-15.474,6.941-15.474,15.474c0,0.553,0.448,1,1,1s1-0.447,1-1c0-7.43,6.044-13.474,13.474-13.474 S44.474,51.57,44.474,59c0,0.553,0.448,1,1,1s1-0.447,1-1C46.474,50.468,39.532,43.526,31,43.526z"/> <path d="M31,48.789c-5.63,0-10.21,4.581-10.21,10.211c0,0.553,0.448,1,1,1s1-0.447,1-1c0-4.527,3.683-8.211,8.21-8.211 s8.21,3.684,8.21,8.211c0,0.553,0.448,1,1,1s1-0.447,1-1C41.21,53.37,36.63,48.789,31,48.789z"/> <path d="M31,54.053c-2.728,0-4.947,2.22-4.947,4.947c0,0.553,0.448,1,1,1s1-0.447,1-1c0-1.625,1.322-2.947,2.947-2.947 s2.947,1.322,2.947,2.947c0,0.553,0.448,1,1,1s1-0.447,1-1C35.947,56.272,33.728,54.053,31,54.053z"/> <path d="M10.325,37.356c0.15,0.401,0.532,0.649,0.937,0.649c0.117,0,0.235-0.021,0.351-0.063c0.517-0.193,0.78-0.77,0.586-1.287 C11.403,34.531,11,32.292,11,30c0-10.477,8.523-19,19-19s19,8.523,19,19c0,2.288-0.402,4.525-1.196,6.651 c-0.193,0.518,0.07,1.093,0.587,1.286c0.517,0.194,1.093-0.068,1.287-0.587C50.555,35.001,51,32.527,51,30c0-11.579-9.42-21-21-21 S9,18.421,9,30C9,32.532,9.446,35.008,10.325,37.356z"/> <path d="M44.502,33.98c0.541,0.109,1.069-0.24,1.178-0.782C45.893,32.15,46,31.074,46,30c0-8.822-7.178-16-16-16s-16,7.178-16,16 c0,1.446,0.193,2.881,0.575,4.264c0.122,0.443,0.524,0.734,0.963,0.734c0.088,0,0.177-0.012,0.266-0.036 c0.533-0.146,0.845-0.697,0.698-1.229C16.169,32.522,16,31.267,16,30c0-7.72,6.28-14,14-14s14,6.28,14,14 c0,0.941-0.094,1.884-0.28,2.802C43.61,33.343,43.96,33.87,44.502,33.98z"/> <path d="M8,30c0-0.553-0.448-1-1-1H1c-0.552,0-1,0.447-1,1s0.448,1,1,1h6C7.552,31,8,30.553,8,30z"/> <path d="M59,29h-6c-0.552,0-1,0.447-1,1s0.448,1,1,1h6c0.552,0,1-0.447,1-1S59.552,29,59,29z"/> <path d="M30,8c0.552,0,1-0.447,1-1V1c0-0.553-0.448-1-1-1s-1,0.447-1,1v6C29,7.553,29.448,8,30,8z"/> <path d="M46.264,14.736c0.256,0,0.512-0.098,0.707-0.293l5.736-5.736c0.391-0.391,0.391-1.023,0-1.414s-1.023-0.391-1.414,0 l-5.736,5.736c-0.391,0.391-0.391,1.023,0,1.414C45.752,14.639,46.008,14.736,46.264,14.736z"/> <path d="M13.029,14.443c0.195,0.195,0.451,0.293,0.707,0.293s0.512-0.098,0.707-0.293c0.391-0.391,0.391-1.023,0-1.414L8.707,7.293 c-0.391-0.391-1.023-0.391-1.414,0s-0.391,1.023,0,1.414L13.029,14.443z"/> <path d="M38.596,9.749c0.127,0.054,0.26,0.079,0.39,0.079c0.389,0,0.759-0.229,0.921-0.609l1.172-2.762 c0.216-0.508-0.021-1.096-0.53-1.312c-0.508-0.214-1.095,0.022-1.311,0.53l-1.172,2.762C37.851,8.945,38.088,9.533,38.596,9.749z"/> <path d="M20.457,9.05c0.157,0.389,0.532,0.625,0.928,0.625c0.125,0,0.251-0.023,0.374-0.073c0.512-0.207,0.76-0.789,0.553-1.302 l-1.124-2.781c-0.207-0.511-0.79-0.758-1.302-0.552c-0.512,0.207-0.76,0.789-0.553,1.302L20.457,9.05z"/> <path d="M5.676,20.762l2.762,1.173c0.128,0.054,0.26,0.079,0.391,0.079c0.389,0,0.759-0.229,0.921-0.609 c0.216-0.508-0.021-1.095-0.529-1.312L6.458,18.92c-0.511-0.214-1.095,0.021-1.312,0.53C4.931,19.958,5.167,20.545,5.676,20.762z"/> <path d="M50.398,21.759c0.157,0.389,0.532,0.625,0.928,0.625c0.125,0,0.251-0.023,0.374-0.073l2.782-1.124 c0.512-0.206,0.76-0.789,0.553-1.302c-0.207-0.511-0.788-0.759-1.302-0.552l-2.782,1.124 C50.438,20.663,50.191,21.246,50.398,21.759z"/> </g> </g>
</svg>