<!DOCTYPE svg PUBLIC "-//W3C//DTD SVG 1.1//EN" "http://www.w3.org/Graphics/SVG/1.1/DTD/svg11.dtd">
<!-- Uploaded to: SVG Repo, www.svgrepo.com, Transformed by: SVG Repo Mixer Tools -->
<svg fill="#295556" height="800px" width="800px" version="1.1" id="Capa_1" xmlns="http://www.w3.org/2000/svg" xmlns:xlink="http://www.w3.org/1999/xlink" viewBox="0 0 59.95 59.95" xml:space="preserve">
<g id="SVGRepo_bgCarrier" stroke-width="0"/>
<g id="SVGRepo_tracerCarrier" stroke-linecap="round" stroke-linejoin="round"/>
<g id="SVGRepo_iconCarrier"> <g> <path d="M32.95,29.756c-14.888,0-27,12.112-27,27c0,0.553,0.448,1,1,1s1-0.447,1-1c0-13.785,11.215-25,25-25s25,11.215,25,25 c0,0.553,0.448,1,1,1s1-0.447,1-1C59.95,41.868,47.838,29.756,32.95,29.756z"/> <path d="M32.95,35.23c-11.87,0-21.526,9.656-21.526,21.526c0,0.553,0.448,1,1,1s1-0.447,1-1c0-10.767,8.759-19.526,19.526-19.526 s19.526,8.76,19.526,19.526c0,0.553,0.448,1,1,1s1-0.447,1-1C54.476,44.886,44.82,35.23,32.95,35.23z"/> <path d="M32.95,40.703c-8.852,0-16.053,7.201-16.053,16.053c0,0.553,0.448,1,1,1s1-0.447,1-1c0-7.749,6.304-14.053,14.053-14.053 s14.053,6.304,14.053,14.053c0,0.553,0.448,1,1,1s1-0.447,1-1C49.003,47.905,41.801,40.703,32.95,40.703z"/> <path d="M32.95,46.177c-5.833,0-10.579,4.746-10.579,10.579c0,0.553,0.448,1,1,1s1-0.447,1-1c0-4.73,3.849-8.579,8.579-8.579 s8.579,3.849,8.579,8.579c0,0.553,0.448,1,1,1s1-0.447,1-1C43.529,50.923,38.783,46.177,32.95,46.177z"/> <path d="M32.95,51.651c-2.815,0-5.105,2.29-5.105,5.105c0,0.553,0.448,1,1,1s1-0.447,1-1c0-1.712,1.393-3.105,3.105-3.105 s3.105,1.394,3.105,3.105c0,0.553,0.448,1,1,1s1-0.447,1-1C38.055,53.941,35.765,51.651,32.95,51.651z"/> <path d="M6.899,46.276c0.287-0.472,0.137-1.087-0.335-1.374c-4.477-2.721-5.905-8.575-3.185-13.052 c2.196-3.614,6.445-5.311,10.489-4.261c0.458,1.47,1.33,2.779,2.546,3.78c0.187,0.154,0.412,0.229,0.635,0.229 c0.289,0,0.575-0.124,0.772-0.364c0.351-0.427,0.29-1.057-0.136-1.407c-0.989-0.815-1.671-1.901-1.986-3.119 c-0.003-0.043-0.022-0.081-0.031-0.123c-0.063-0.266-0.114-0.535-0.141-0.811c-0.154-1.596,0.322-3.155,1.34-4.393 c1.357-1.647,3.434-2.424,5.492-2.122c-0.28,1.173-0.307,2.424-0.012,3.675c0.108,0.46,0.519,0.771,0.973,0.771 c0.076,0,0.153-0.009,0.23-0.026c0.538-0.127,0.871-0.665,0.745-1.203c-0.758-3.22,1.246-6.456,4.466-7.214 c1.562-0.368,3.17-0.105,4.532,0.738c1.363,0.844,2.315,2.168,2.682,3.728c0.126,0.538,0.663,0.866,1.203,0.745 c0.538-0.127,0.871-0.665,0.745-1.202c-0.49-2.081-1.76-3.846-3.577-4.971c-0.746-0.461-1.548-0.785-2.378-0.981 c0.2-5.063,4.37-9.123,9.481-9.123c5.094,0,9.253,4.033,9.478,9.073c-3.929,0.504-6.978,3.863-6.978,7.927c0,0.553,0.448,1,1,1 s1-0.447,1-1c0-3.309,2.691-6,6-6s6,2.691,6,6c0,0.553,0.448,1,1,1s1-0.447,1-1c0-4.079-3.071-7.449-7.022-7.934 C52.697,7.121,47.645,2.194,41.45,2.194c-6.142,0-11.16,4.844-11.47,10.91c-0.558,0.012-1.119,0.078-1.676,0.209 c-2.336,0.55-4.186,2.082-5.23,4.053c-2.88-0.584-5.846,0.433-7.75,2.742c-1.252,1.52-1.88,3.407-1.811,5.359 c-4.63-0.835-9.341,1.224-11.844,5.344c-3.293,5.419-1.563,12.507,3.855,15.8c0.163,0.099,0.342,0.146,0.519,0.146 C6.381,46.756,6.711,46.585,6.899,46.276z"/> </g> </g>
</svg>